<?xml version="1.0"?>
<svg xmlns:rdf="http://www.w3.org/1999/02/22-rdf-syntax-ns#" xmlns="http://www.w3.org/2000/svg" xmlns:cc="http://creativecommons.org/ns#" xmlns:dc="http://purl.org/dc/elements/1.1/" xmlns:svg="http://www.w3.org/2000/svg" id="svg1287" viewBox="0 0 375 450" version="1.0" y="0" x="0">
  <g id="layer1">
    <path id="rect1921" transform="translate(-87.106 -161.11)" d="m118.08 290.55c-6.52 0-11.77 5.44-11.77 12.21v51.44c0 6.76 5.25 12.21 11.77 12.21h2.87v-64.96h307.33v64.96h2.86c6.52 0 11.77-5.45 11.77-12.21v-51.44c0-6.77-5.25-12.21-11.77-12.21h-313.06z"/>
    <rect id="rect1297" transform="translate(-87.106 -161.11)" height="265.75" width="372.05" y="343.7" x="88.583"/>
    <rect id="rect1920" stroke-linejoin="round" transform="translate(-87.106 -161.11)" height="160.02" width="334.71" stroke="#fff" stroke-linecap="round" y="432.28" x="108.21" stroke-width="3.75" fill="#969696"/>
    <path id="path1924" fill="#fff" transform="translate(194.48 -162.98)" d="m159.45 387.99a26.575 26.575 0 1 1 -53.15 0 26.575 26.575 0 1 1 53.15 0z"/>
    <path id="path1925" fill="#fff" transform="translate(-85.231 -162.98)" d="m159.45 387.99a26.575 26.575 0 1 1 -53.15 0 26.575 26.575 0 1 1 53.15 0z"/>
    <rect id="rect1926" stroke-linejoin="round" transform="translate(-87.106 -161.11)" height="33.738" width="194.88" stroke="#fff" stroke-linecap="round" y="363.2" x="177.17" stroke-width="3.75" fill="#969696"/>
    <path id="path2564" stroke-linejoin="round" d="m70.866 343.7v-170.91" transform="translate(-3.54e-7 -161.11)" stroke="#000" stroke-linecap="round" stroke-width="7.5" fill="none"/>
    <path id="path2567" transform="translate(-3.54e-7 -161.11)" d="m81.611 173.51a10.745 10.745 0 1 1 -21.49 0 10.745 10.745 0 1 1 21.49 0z"/>
    <path id="path2569" d="m106.3 371.08v17.99" transform="translate(6.2008 -161.11)" stroke="#000" stroke-width="1.2111pt" fill="none"/>
    <path id="path2577" d="m131.3 371.08v17.99" transform="translate(6.2008 -161.11)" stroke="#000" stroke-width="1.2111pt" fill="none"/>
    <path id="path2578" d="m156.3 371.08v17.99" transform="translate(6.2008 -161.11)" stroke="#000" stroke-width="1.2111pt" fill="none"/>
    <path id="path2579" d="m181.3 371.08v17.99" transform="translate(6.2008 -161.11)" stroke="#000" stroke-width="1.2111pt" fill="none"/>
    <path id="path2580" d="m206.3 371.08v17.99" transform="translate(6.2008 -161.11)" stroke="#000" stroke-width="1.2111pt" fill="none"/>
    <path id="path2581" d="m231.3 371.08v17.99" transform="translate(6.2008 -161.11)" stroke="#000" stroke-width="1.2111pt" fill="none"/>
    <path id="path2582" d="m256.3 371.08v17.99" transform="translate(6.2008 -161.11)" stroke="#000" stroke-width="1.2111pt" fill="none"/>
    <path id="path2606" d="m117.5 374.4v11.35" transform="translate(-3.54e-7 -161.11)" stroke="#000" stroke-width="1.2111pt" fill="none"/>
    <path id="path2607" d="m142.5 374.4v11.35" transform="translate(-3.54e-7 -161.11)" stroke="#000" stroke-width="1.2111pt" fill="none"/>
    <path id="path2608" d="m167.5 374.4v11.35" transform="translate(-3.54e-7 -161.11)" stroke="#000" stroke-width="1.2111pt" fill="none"/>
    <path id="path2609" d="m192.5 374.4v11.35" transform="translate(-3.54e-7 -161.11)" stroke="#000" stroke-width="1.2111pt" fill="none"/>
    <path id="path2610" d="m217.5 374.4v11.35" transform="translate(-3.54e-7 -161.11)" stroke="#000" stroke-width="1.2111pt" fill="none"/>
    <path id="path2611" d="m242.5 374.4v11.35" transform="translate(-3.54e-7 -161.11)" stroke="#000" stroke-width="1.2111pt" fill="none"/>
    <path id="path2612" d="m267.5 374.4v11.35" transform="translate(-3.54e-7 -161.11)" stroke="#000" stroke-width="1.2111pt" fill="none"/>
    <path id="path2613" d="m122.5 374.4v11.35" transform="translate(-3.54e-7 -161.11)" stroke="#000" stroke-width="1.2111pt" fill="none"/>
    <path id="path2614" d="m147.5 374.4v11.35" transform="translate(-3.54e-7 -161.11)" stroke="#000" stroke-width="1.2111pt" fill="none"/>
    <path id="path2615" d="m172.5 374.4v11.35" transform="translate(-3.54e-7 -161.11)" stroke="#000" stroke-width="1.2111pt" fill="none"/>
    <path id="path2616" d="m197.5 374.4v11.35" transform="translate(-3.54e-7 -161.11)" stroke="#000" stroke-width="1.2111pt" fill="none"/>
    <path id="path2617" d="m222.5 374.4v11.35" transform="translate(-3.54e-7 -161.11)" stroke="#000" stroke-width="1.2111pt" fill="none"/>
    <path id="path2618" d="m247.5 374.4v11.35" transform="translate(-3.54e-7 -161.11)" stroke="#000" stroke-width="1.2111pt" fill="none"/>
    <path id="path2619" d="m272.5 374.4v11.35" transform="translate(-3.54e-7 -161.11)" stroke="#000" stroke-width="1.2111pt" fill="none"/>
    <path id="path2620" d="m127.5 374.4v11.35" transform="translate(-3.54e-7 -161.11)" stroke="#000" stroke-width="1.2111pt" fill="none"/>
    <path id="path2621" d="m152.5 374.4v11.35" transform="translate(-3.54e-7 -161.11)" stroke="#000" stroke-width="1.2111pt" fill="none"/>
    <path id="path2622" d="m177.5 374.4v11.35" transform="translate(-3.54e-7 -161.11)" stroke="#000" stroke-width="1.2111pt" fill="none"/>
    <path id="path2623" d="m202.5 374.4v11.35" transform="translate(-3.54e-7 -161.11)" stroke="#000" stroke-width="1.2111pt" fill="none"/>
    <path id="path2624" d="m227.5 374.4v11.35" transform="translate(-3.54e-7 -161.11)" stroke="#000" stroke-width="1.2111pt" fill="none"/>
    <path id="path2625" d="m252.5 374.4v11.35" transform="translate(-3.54e-7 -161.11)" stroke="#000" stroke-width="1.2111pt" fill="none"/>
    <path id="path2626" d="m277.5 374.4v11.35" transform="translate(-3.54e-7 -161.11)" stroke="#000" stroke-width="1.2111pt" fill="none"/>
    <path id="path2627" d="m132.5 374.4v11.35" transform="translate(-3.54e-7 -161.11)" stroke="#000" stroke-width="1.2111pt" fill="none"/>
    <path id="path2628" d="m157.5 374.4v11.35" transform="translate(-3.54e-7 -161.11)" stroke="#000" stroke-width="1.2111pt" fill="none"/>
    <path id="path2629" d="m182.5 374.4v11.35" transform="translate(-3.54e-7 -161.11)" stroke="#000" stroke-width="1.2111pt" fill="none"/>
    <path id="path2630" d="m207.5 374.4v11.35" transform="translate(-3.54e-7 -161.11)" stroke="#000" stroke-width="1.2111pt" fill="none"/>
    <path id="path2631" d="m232.5 374.4v11.35" transform="translate(-3.54e-7 -161.11)" stroke="#000" stroke-width="1.2111pt" fill="none"/>
    <path id="path2632" d="m257.5 374.4v11.35" transform="translate(-3.54e-7 -161.11)" stroke="#000" stroke-width="1.2111pt" fill="none"/>
    <path id="path2634" d="m97.5 374.4v11.35" transform="translate(-3.54e-7 -161.11)" stroke="#000" stroke-width="1.2111pt" fill="none"/>
    <path id="path2635" d="m102.5 374.4v11.35" transform="translate(-3.54e-7 -161.11)" stroke="#000" stroke-width="1.2111pt" fill="none"/>
    <path id="path2636" d="m107.5 374.4v11.35" transform="translate(-3.54e-7 -161.11)" stroke="#000" stroke-width="1.2111pt" fill="none"/>
    <rect id="rect1927" transform="translate(-3.54e-7 -161.11)" height="27.563" width="7.7247" y="369.29" x="220.68" fill="#fff"/>
  </g>
  <metadata>
    <rdf:RDF>
      <cc:Work>
        <dc:format>image/svg+xml</dc:format>
        <dc:type rdf:resource="http://purl.org/dc/dcmitype/StillImage"/>
        <cc:license rdf:resource="http://creativecommons.org/licenses/publicdomain/"/>
        <dc:publisher>
          <cc:Agent rdf:about="http://openclipart.org/">
            <dc:title>Openclipart</dc:title>
          </cc:Agent>
        </dc:publisher>
        <dc:title>simple radio</dc:title>
        <dc:date>2008-09-02T21:40:21</dc:date>
        <dc:description>broadcast, broadcast, clip art, clipart, editorial pick, electronic, electronic, image, media, music, music, png, public domain, radio, radio, svg, </dc:description>
        <dc:source>http://openclipart.org/detail/18993/simple-radio-by-aj</dc:source>
        <dc:creator>
          <cc:Agent>
            <dc:title>AJ</dc:title>
          </cc:Agent>
        </dc:creator>
        <dc:subject>
          <rdf:Bag>
            <rdf:li>broadcast</rdf:li>
            <rdf:li>clip art</rdf:li>
            <rdf:li>clipart</rdf:li>
            <rdf:li>editorial pick</rdf:li>
            <rdf:li>electronic</rdf:li>
            <rdf:li>image</rdf:li>
            <rdf:li>media</rdf:li>
            <rdf:li>music</rdf:li>
            <rdf:li>png</rdf:li>
            <rdf:li>public domain</rdf:li>
            <rdf:li>radio</rdf:li>
            <rdf:li>svg</rdf:li>
          </rdf:Bag>
        </dc:subject>
      </cc:Work>
      <cc:License rdf:about="http://creativecommons.org/licenses/publicdomain/">
        <cc:permits rdf:resource="http://creativecommons.org/ns#Reproduction"/>
        <cc:permits rdf:resource="http://creativecommons.org/ns#Distribution"/>
        <cc:permits rdf:resource="http://creativecommons.org/ns#DerivativeWorks"/>
      </cc:License>
    </rdf:RDF>
  </metadata>
</svg>
