<?xml version="1.0" encoding="UTF-8" standalone="no"?>
<!-- Created with Inkscape (http://www.inkscape.org/) -->

<svg
   xmlns:dc="http://purl.org/dc/elements/1.1/"
   xmlns:cc="http://creativecommons.org/ns#"
   xmlns:rdf="http://www.w3.org/1999/02/22-rdf-syntax-ns#"
   xmlns:svg="http://www.w3.org/2000/svg"
   xmlns="http://www.w3.org/2000/svg"
   xmlns:sodipodi="http://sodipodi.sourceforge.net/DTD/sodipodi-0.dtd"
   xmlns:inkscape="http://www.inkscape.org/namespaces/inkscape"
   version="1.1"
   id="svg3443"
   xml:space="preserve"
   width="880"
   height="880"
   viewBox="0 0 880 880"
   sodipodi:docname="target-publicdomainvectors [Converted].svg"
   inkscape:version="0.92.4 (5da689c313, 2019-01-14)"><metadata
     id="metadata3449"><rdf:RDF><cc:Work
         rdf:about=""><dc:format>image/svg+xml</dc:format><dc:type
           rdf:resource="http://purl.org/dc/dcmitype/StillImage" /><dc:title /></cc:Work></rdf:RDF></metadata><defs
     id="defs3447"><clipPath
       clipPathUnits="userSpaceOnUse"
       id="clipPath3459"><path
         d="M 0,660 H 660 V 0 H 0 Z"
         id="path3457"
         inkscape:connector-curvature="0" /></clipPath></defs><sodipodi:namedview
     pagecolor="#ffffff"
     bordercolor="#666666"
     borderopacity="1"
     objecttolerance="10"
     gridtolerance="10"
     guidetolerance="10"
     inkscape:pageopacity="0"
     inkscape:pageshadow="2"
     inkscape:window-width="1920"
     inkscape:window-height="1018"
     id="namedview3445"
     showgrid="false"
     inkscape:zoom="0.78784209"
     inkscape:cx="405.78187"
     inkscape:cy="464.23729"
     inkscape:window-x="-8"
     inkscape:window-y="-8"
     inkscape:window-maximized="1"
     inkscape:current-layer="g3451" /><g
     id="g3451"
     inkscape:groupmode="layer"
     inkscape:label="target-publicdomainvectors [Converted]"
     transform="matrix(1.3333333,0,0,-1.3333333,0,880)"><g
       id="g3453"><g
         id="g3455"
         clip-path="url(#clipPath3459)"><path
           d="m 398.793,367.748 c 0,-37.806 -11.719,-72.92 -31.704,-101.92 l -30.641,23.533 c 15.001,22.455 23.76,49.414 23.76,78.387 0,15.089 -2.386,29.633 -6.782,43.278 l 36.749,11.775 c 5.588,-17.362 8.618,-35.86 8.618,-55.053 M 280.955,331.981 c 6.082,10.54 9.581,22.748 9.581,35.767 0,7.678 -1.224,15.073 -3.467,22.017 l 35.723,11.446 c 3.403,-10.553 5.259,-21.794 5.259,-33.463 0,-21.609 -6.327,-41.757 -17.189,-58.735 z m -51.291,39.391 26.786,8.582 c 1.247,-3.847 1.93,-7.948 1.93,-12.206 0,-5.645 -1.193,-11.011 -3.325,-15.875 z m 395.696,132.354 -30.935,-7.961 -1.397,4.371 31.658,9.296 19.895,26.728 -68.13,-19.16 -22.291,-26.464 -8.601,-2.756 -331.411,-106.184 -3.021,-0.967 c -1.761,-1.366 -2.662,-4.406 -2.232,-7.289 -0.281,-1.504 -0.073,-3.177 0.879,-4.936 l 37.136,-28.52 c -7.195,-7.276 -17.171,-11.794 -28.186,-11.794 -21.869,0 -39.658,17.789 -39.658,39.658 0,21.866 17.789,39.657 39.658,39.657 10.419,0 19.906,-4.046 26.992,-10.641 l 32.922,10.511 c -12.866,19.435 -34.914,32.285 -59.914,32.285 -39.599,0 -71.813,-32.215 -71.813,-71.812 0,-39.599 32.214,-71.812 71.813,-71.812 21.387,0 40.609,9.408 53.776,24.292 l 29.783,-22.874 c -20.071,-23.786 -50.072,-38.934 -83.559,-38.934 -60.284,0 -109.328,49.046 -109.328,109.328 0,60.282 49.044,109.327 109.328,109.327 41.782,0 78.149,-23.571 96.544,-58.103 l 31.038,9.909 C 323.455,476.373 274.855,509.23 218.724,509.23 140.71,509.23 77.24,445.761 77.24,367.748 c 0,-78.015 63.47,-141.483 141.484,-141.483 43.855,0 83.116,20.058 109.089,51.483 l 30.597,-23.499 c -33.045,-40.592 -83.384,-66.572 -139.686,-66.572 -99.291,0 -180.07,80.779 -180.07,180.071 0,99.29 80.779,180.068 180.07,180.068 73.332,0 136.56,-44.07 164.61,-107.112 l 30.795,9.834 C 381.806,526.542 306.388,579.972 218.724,579.972 101.702,579.972 6.498,484.769 6.498,367.748 c 0,-117.021 95.204,-212.226 212.226,-212.226 117.021,0 212.223,95.205 212.223,212.226 0,22.613 -3.568,44.409 -10.147,64.865 l 146.625,46.976 20.378,-7.058 68.335,18.417 z"
           style="fill:#231f20;fill-opacity:1;fill-rule:nonzero;stroke:none"
           id="path3461"
           inkscape:connector-curvature="0" /></g></g></g></svg>